<?xml version="1.0" encoding="UTF-8"?>
<svg xmlns="http://www.w3.org/2000/svg" viewBox="0 0 512 512" width="512" height="512">
  <path d="M44.44 0.08C185.48 0.08 326.52 0.08 467.56 0.08C469.25 1.56 475.98 2.13 478.6 3.14C485.21 5.66 491.64 9.56 496.66 14.63C501.98 20 506.18 26.37 508.86 33.4C509.86 36.01 510.45 42.76 511.92 44.44C511.92 185.48 511.92 326.52 511.92 467.56C510.44 469.26 509.87 475.98 508.86 478.6C506.34 485.21 502.44 491.64 497.37 496.66C492 501.98 485.63 506.18 478.6 508.86C475.99 509.86 469.24 510.45 467.56 511.92C326.52 511.92 185.48 511.92 44.44 511.92C42.76 510.45 36.01 509.86 33.4 508.86C26.37 506.18 20 501.98 14.63 496.66C9.56 491.64 5.66 485.21 3.14 478.6C2.13 475.98 1.56 469.25 0.08 467.56C0.08 326.52 0.08 185.48 0.08 44.44C1.55 42.76 2.14 36.01 3.14 33.4C5.82 26.37 10.02 20 15.34 14.63C20.36 9.56 26.79 5.66 33.4 3.14C36.02 2.13 42.75 1.56 44.44 0.08ZM126.48 46.1C123.64 50.38 122.51 56.37 120.84 61.21C117.44 71.02 113.62 80.72 109.71 90.34C99.51 115.51 87.44 140.26 73.71 163.74C67.4 174.52 61 185.44 53.78 195.67C51.5 198.89 44.35 207.18 44.11 210.64C52.87 216.27 60.89 223.33 68.5 230.39C71.54 229.23 79.09 216.18 81.17 212.8C91.54 196.02 100.75 178.7 110.71 161.74C114.14 161.74 117.57 161.74 121 161.74C121 263.43 121 365.12 121 466.81C132.17 466.81 143.33 466.81 154.5 466.81C154.5 365.11 154.5 263.4 154.5 161.7C185.3 161.7 216.11 161.7 246.91 161.7C246.91 151.41 246.91 141.12 246.91 130.83C206.7 130.83 166.49 130.83 126.28 130.83C126.54 126.09 131.67 118 133.82 113.44C140.04 100.28 145.73 86.8 151.22 73.32C153.21 68.42 157.26 62.06 157.48 56.81C147.15 53.24 136.81 49.67 126.48 46.1ZM310.71 46.92C308 49.83 304.5 63.42 302.83 67.91C297.56 82.07 291.19 95.95 284.75 109.62C273.26 133.99 259.86 158.14 244.83 180.57C240.15 187.57 235.58 194.61 230.72 201.5C227.85 205.57 223.81 209.82 221.87 214.39C230.75 221 239.64 227.61 248.52 234.22C260.42 217.43 272.04 200.49 282.74 182.92C285.83 177.85 288.82 172.73 291.72 167.56C292.54 166.1 293.55 162.86 295.05 162.03C297.78 160.52 309.39 161.7 313.04 161.7C324.73 161.7 336.42 161.7 348.11 161.7C353.33 161.7 360.08 160.58 365.07 162.02C366.65 165.59 365.5 175.03 365.5 179.32C365.5 192.88 365.5 206.44 365.5 220C365.5 267.69 365.5 315.38 365.5 363.08C365.5 376.17 365.5 389.26 365.5 402.35C365.5 410.24 365.39 419.25 359.66 425.36C353.85 431.56 345.29 431.57 337.36 431.36C325.8 431.07 314.3 430.53 302.76 430.02C298.54 429.83 292.08 427.8 288.19 429.47C290.39 440.59 292.6 451.7 294.81 462.82C299.84 464.55 317.37 463.53 323.8 463.66C351.17 464.19 385.72 467.38 395.86 434.96C399.57 423.11 399 410.43 399 398.14C399 385.99 399 373.83 399 361.67C399 316.79 399 271.9 399 227.01C399 212.52 399 198.02 399 183.53C399 176.49 398.02 168.61 399.23 161.7C422.37 161.7 445.52 161.7 468.67 161.7C468.67 151.41 468.67 141.12 468.67 130.84C416.26 130.84 363.85 130.84 311.45 130.84C311.79 125.42 317.44 116.69 319.8 111.48C325.58 98.73 331.25 85.82 336.22 72.74C338.06 67.89 341.33 62.4 341.91 57.28C331.51 53.82 321.11 50.37 310.71 46.92Z" fill="#9CC813" fill-rule="evenodd" stroke="#9CC813" stroke-width="0.25" stroke-linejoin="round"/>
  <path d="M126.48 46.1C136.81 49.67 147.15 53.24 157.48 56.81C157.26 62.06 153.21 68.42 151.22 73.32C145.73 86.8 140.04 100.28 133.82 113.44C131.67 118 126.54 126.09 126.28 130.83C166.49 130.83 206.7 130.83 246.91 130.83C246.91 141.12 246.91 151.41 246.91 161.7C216.11 161.7 185.3 161.7 154.5 161.7C154.5 263.4 154.5 365.11 154.5 466.81C143.33 466.81 132.17 466.81 121 466.81C121 365.12 121 263.43 121 161.74C117.57 161.74 114.14 161.74 110.71 161.74C100.75 178.7 91.54 196.02 81.17 212.8C79.09 216.18 71.54 229.23 68.5 230.39C60.89 223.33 52.87 216.27 44.11 210.64C44.35 207.18 51.5 198.89 53.78 195.67C61 185.44 67.4 174.52 73.71 163.74C87.44 140.26 99.51 115.51 109.71 90.34C113.62 80.72 117.44 71.02 120.84 61.21C122.51 56.37 123.64 50.38 126.48 46.1ZM310.71 46.92C321.11 50.37 331.51 53.82 341.91 57.28C341.33 62.4 338.06 67.89 336.22 72.74C331.25 85.82 325.58 98.73 319.8 111.48C317.44 116.69 311.79 125.42 311.45 130.84C363.85 130.84 416.26 130.84 468.67 130.84C468.67 141.12 468.67 151.41 468.67 161.7C445.52 161.7 422.37 161.7 399.23 161.7C398.02 168.61 399 176.49 399 183.53C399 198.02 399 212.52 399 227.01C399 271.9 399 316.79 399 361.67C399 373.83 399 385.99 399 398.14C399 410.43 399.57 423.11 395.86 434.96C385.72 467.38 351.17 464.19 323.8 463.66C317.37 463.53 299.84 464.55 294.81 462.82C292.6 451.7 290.39 440.59 288.19 429.47C292.08 427.8 298.54 429.83 302.76 430.02C314.3 430.53 325.8 431.07 337.36 431.36C345.29 431.57 353.85 431.56 359.66 425.36C365.39 419.25 365.5 410.24 365.5 402.35C365.5 389.26 365.5 376.17 365.5 363.08C365.5 315.38 365.5 267.69 365.5 220C365.5 206.44 365.5 192.88 365.5 179.32C365.5 175.03 366.65 165.59 365.07 162.02C360.08 160.58 353.33 161.7 348.11 161.7C336.42 161.7 324.73 161.7 313.04 161.7C309.39 161.7 297.78 160.52 295.05 162.03C293.55 162.86 292.54 166.1 291.72 167.56C288.82 172.73 285.83 177.85 282.74 182.92C272.04 200.49 260.42 217.43 248.52 234.22C239.64 227.61 230.75 221 221.87 214.39C223.81 209.82 227.85 205.57 230.72 201.5C235.58 194.61 240.15 187.57 244.83 180.57C259.86 158.14 273.26 133.99 284.75 109.62C291.19 95.95 297.56 82.07 302.83 67.91C304.5 63.42 308 49.83 310.71 46.92Z" fill="#FFFFFF" fill-rule="evenodd" stroke="#FFFFFF" stroke-width="0.25" stroke-linejoin="round"/>
</svg>