<?xml version="1.0" encoding="UTF-8"?>
<svg xmlns="http://www.w3.org/2000/svg" viewBox="0 0 1000 1000" width="1000" height="1000">
<path d="M479.61 2.43C541.47 -1.27 605.47 9.11 663.76 29.69C721.78 50.17 775.57 81.19 822.39 121.08C865.69 157.98 902.3 202.51 930.8 251.7C955.52 294.38 974.16 341.42 984.74 389.61C996.15 441.61 1000.02 495.4 994.72 548.49C977.56 720.48 873.05 870.15 718.74 947.25C656.05 978.57 586.39 995.31 516.5 997.8C453.53 1000.05 390.53 989.46 331.33 968.21C276.89 948.68 226.08 918.77 181.88 881.58C137.2 843.99 99.47 798.81 70.2 748.3C43.86 702.83 24.91 652.77 14.3 601.35C3.02 546.76 0.8 489.82 8.22 434.53C29.61 275.19 127.44 134.33 269.67 59.18C335.58 24.35 405.45 6.86 479.61 2.43ZM274.64 912.12C284.31 919.74 300.82 926.17 312.29 931.23C347.45 946.75 384.55 957.97 422.46 964.22C475.27 972.92 528.7 972.63 581.47 963.83C706.21 943.04 820.56 866.88 890.4 761.87C921.84 714.6 945.11 661.81 957.81 606.44C968.29 560.77 972.21 513.3 968.77 466.5C957.03 306.51 864.68 163.5 724.28 86.23C667.23 54.83 603.31 35.97 538.5 30.81C477.41 25.94 415.55 32.73 357.24 51.67C302.35 69.51 251.84 97.29 206.67 133.11C99.47 218.13 34.21 352.06 31.16 488.5C29.51 562.46 45.15 636.59 77.18 703.32C119.95 792.42 188.18 862.88 273.5 911.98C275.97 905 274.38 895.05 274.38 887.5C274.38 870.5 274.38 853.5 274.38 836.5C274.38 797.17 274.38 757.83 274.38 718.5C274.38 697.93 273.63 677.19 274.5 656.64C288.59 656.64 302.68 656.64 316.78 656.64C316.78 741.8 316.78 826.96 316.78 912.12C302.73 912.12 288.69 912.12 274.64 912.12ZM274.38 90.91C288.51 90.91 302.64 90.91 316.78 90.91C316.78 176.06 316.78 261.21 316.78 346.36C302.64 346.36 288.51 346.36 274.38 346.36C274.38 261.21 274.38 176.06 274.38 90.91ZM352.97 90.9C367.08 90.9 381.19 90.9 395.3 90.9C395.3 364.63 395.3 638.37 395.3 912.1C381.19 912.1 367.08 912.1 352.97 912.1C352.97 638.37 352.97 364.63 352.97 90.9ZM274.38 373.64C288.51 373.64 302.64 373.64 316.78 373.64C316.78 458.88 316.78 544.12 316.78 629.36C302.64 629.36 288.51 629.36 274.38 629.36C274.38 544.12 274.38 458.88 274.38 373.64ZM606.5 479.31C616.44 488.59 626.28 497.98 636.32 507.15C638.78 509.4 647 515.84 647.83 518.62C649.19 523.15 648 542.47 648 548.5C648 570.83 648 593.17 648 615.5C648 663.83 648 712.17 648 760.5C648 775.83 648 791.17 648 806.5C648 814.31 649.12 823.18 647.5 830.78C637.62 821.4 627.6 812.17 617.63 802.89C615.04 800.48 607.04 794.34 605.95 791.41C604.47 787.43 605.61 775.32 605.61 770.5C605.61 754.5 605.61 738.5 605.61 722.5C605.61 668.17 605.61 613.83 605.61 559.5C605.61 541.17 605.61 522.83 605.61 504.5C605.61 497.5 604.06 485.4 606.5 479.31ZM684.5 552.44C695.05 560.32 705.8 571.84 715.46 581.03C717.93 583.38 725.54 589.13 726.45 592.01C727.31 594.75 726.62 598.64 726.62 601.5C726.62 608.17 726.62 614.83 726.62 621.5C726.62 644.17 726.62 666.83 726.62 689.5C726.62 736.83 726.62 784.17 726.62 831.5C726.62 855.45 727.83 879.77 726.5 903.67C722.3 901.59 718.86 897.3 715.44 894.05C708.78 887.74 702.08 881.39 695.25 875.27C692.84 873.12 685.07 867.09 684.29 864.32C683.48 861.43 684.16 857.49 684.16 854.5C684.16 847.17 684.16 839.83 684.16 832.5C684.16 809.17 684.16 785.83 684.16 762.5C684.16 715.83 684.16 669.17 684.16 622.5C684.16 607.17 684.16 591.83 684.16 576.5C684.16 568.65 683.3 560.19 684.5 552.44Z" fill="#9dc815" fill-rule="evenodd" stroke="#9dc815" stroke-width="0.25" stroke-linejoin="round"/>
<path d="M404.5 478.61C468.89 478.61 533.29 478.61 597.68 478.61C597.68 492.68 597.68 506.76 597.68 520.83C533.11 520.83 468.54 520.83 403.96 520.83C403.3 512.45 403.7 503.91 403.7 495.5C403.7 489.94 403.04 483.9 404.5 478.61ZM597.69 549.39C597.69 563.5 597.69 577.6 597.69 591.7C533.04 591.7 468.39 591.7 403.74 591.7C403.74 577.6 403.74 563.5 403.74 549.39C468.39 549.39 533.04 549.39 597.69 549.39ZM641.68 841.61C562.37 841.61 483.05 841.61 403.74 841.61C403.74 827.57 403.74 813.54 403.74 799.5C418.52 798.41 433.67 799.3 448.5 799.3C477.17 799.3 505.83 799.3 534.5 799.3C548.83 799.3 563.17 799.3 577.5 799.3C582.46 799.3 592.88 798.2 597.22 799.43C600.08 800.24 605.73 807.08 608.2 809.32C616.05 816.44 623.8 823.71 631.47 831.03C634.81 834.21 639.69 837.58 641.68 841.61ZM719.22 912.11C614.05 912.11 508.88 912.11 403.71 912.11C403.71 898.24 403.71 884.37 403.71 870.5C410.85 869.65 418.3 870.17 425.5 870.17C438.5 870.17 451.5 870.17 464.5 870.17C504.5 870.17 544.5 870.17 584.5 870.17C605.17 870.17 625.83 870.17 646.5 870.17C652.49 870.17 669.58 869.01 674.31 870.29C677.64 871.2 684.74 879.34 687.52 881.98C693.84 887.99 700.23 893.98 706.68 899.84C710.98 903.74 715.73 907.55 719.22 912.11Z" fill="#f1bc1a" fill-rule="evenodd" stroke="#f1bc1a" stroke-width="0.25" stroke-linejoin="round"/>
</svg>